IKResults
version=1
nRows=14
nColumns=40
inDegrees=yes

Units are S.I. units (second, meters, Newtons, ...)
Angles are in degrees.

endheader
time	pelvis_tilt	pelvis_list	pelvis_rotation	pelvis_tx	pelvis_ty	pelvis_tz	hip_flexion_r	hip_adduction_r	hip_rotation_r	knee_angle_r	knee_angle_r_beta	ankle_angle_r	subtalar_angle_r	mtp_angle_r	hip_flexion_l	hip_adduction_l	hip_rotation_l	knee_angle_l	knee_angle_l_beta	ankle_angle_l	subtalar_angle_l	mtp_angle_l	lumbar_extension	lumbar_bending	lumbar_rotation	arm_flex_r	arm_add_r	arm_rot_r	elbow_flex_r	pro_sup_r	wrist_flex_r	wrist_dev_r	arm_flex_l	arm_add_l	arm_rot_l	elbow_flex_l	pro_sup_l	wrist_flex_l	wrist_dev_l
      1.02000000	     17.58385532	     -6.00210661	      0.24213593	     -0.54469060	      0.94825308	      0.96047398	      0.29062497	      2.84514890	    -17.42843321	    -14.63548429	     -0.25543739	      3.22970525	      5.32912499	     -6.57594259	    -24.46620446	      4.72348248	     16.07628148	    -12.47351572	     -0.21770392	     13.25123639	     -0.39557047	     -6.06741273	    -24.71037381	      3.60743768	     -3.16784513	     -2.24113624	    -10.15363356	      1.29112212	     28.59794169	     89.95437384	      0.00000000	      0.00000000	     10.57518383	     11.58534680	      7.61214235	     25.21704052	     89.95437384	      0.00000000	      0.00000000
      1.03000000	     17.75243109	     -6.22810709	      0.52118086	     -0.53927216	      0.94781091	      0.96093653	      0.11147765	      3.23488151	    -17.84685347	    -13.81385279	     -0.24109721	      3.22171868	      5.48703604	     -6.77608018	    -24.80909770	      5.08042291	     15.64174015	    -12.85166284	     -0.22430383	     13.66092670	      0.07166905	     -6.07593001	    -24.87528738	      3.97527140	     -3.26983070	     -2.37819237	    -10.13626309	      1.14478059	     28.40013187	     89.95437384	      0.00000000	      0.00000000	     10.59415162	     11.46337691	      7.54323436	     25.50583138	     89.95437384	      0.00000000	      0.00000000
      1.04000000	     17.79269183	     -6.38883531	      0.70002058	     -0.53393649	      0.94712130	      0.96153514	      0.05294871	      3.54531001	    -18.20689053	    -13.00563704	     -0.22699119	      3.18546750	      5.61740174	     -6.97990027	    -25.05589979	      5.32815684	     15.22347103	    -13.11808444	     -0.22895377	     14.03178044	      0.56015863	     -6.09075134	    -24.92460187	      4.25225150	     -3.29456183	     -2.53842455	    -10.14777270	      1.07527918	     28.23853408	     89.95437384	      0.00000000	      0.00000000	     10.60447885	     11.34489378	      7.43032968	     25.88996467	     89.95437384	      0.00000000	      0.00000000
      1.05000000	     17.87154632	     -6.56016385	      0.92645945	     -0.52858905	      0.94640392	      0.96212718	     -0.03925469	      3.86554759	    -18.67699456	    -12.32093175	     -0.21504083	      3.08937285	      5.54993640	     -7.23376153	    -25.34156142	      5.59917379	     14.69775049	    -13.41029269	     -0.23405376	     14.42332254	      1.21176685	     -6.10557007	    -25.01616138	      4.56099101	     -3.35562838	     -2.67909291	    -10.15350431	      0.99631924	     28.08000340	     89.95437384	      0.00000000	      0.00000000	     10.57973486	     11.25631929	      7.22774222	     26.37901785	     89.95437384	      0.00000000	      0.00000000
      1.06000000	     17.69847429	     -6.48778908	      0.81235218	     -0.52330371	      0.94524403	      0.96307437	      0.41308338	      3.81895082	    -18.80750759	    -12.32128490	     -0.21504699	      3.15959373	      5.36725880	     -7.17089585	    -25.38644134	      5.52531986	     14.60328060	    -13.68922557	     -0.23892206	     14.43102631	      1.25614985	     -6.04386628	    -24.84927168	      4.50074434	     -3.19274566	     -2.88260115	    -10.18807506	      1.02183545	     27.96155763	     89.95437384	      0.00000000	      0.00000000	     10.65396876	     11.10596170	      7.18239701	     26.71585855	     89.95437384	      0.00000000	      0.00000000
      1.07000000	     17.92709266	     -6.72183484	      1.18857815	     -0.51772206	      0.94471480	      0.96352054	      0.01105825	      4.23592207	    -19.31313667	    -11.57943646	     -0.20209929	      3.01325627	      5.09588693	     -8.40946673	    -26.10024329	      5.75071714	     13.24168808	    -13.44470054	     -0.23465429	     15.14142693	      3.21376041	     -6.24330631	    -25.07924422	      4.95011226	     -3.37600188	     -2.92877070	    -10.18419486	      0.84749925	     27.64501735	     89.95437384	      0.00000000	      0.00000000	     10.49773418	     11.11451506	      6.59618354	     27.48950319	     89.95437384	      0.00000000	      0.00000000
      1.08000000	     17.73240303	     -6.65619884	      1.11410062	     -0.51230259	      0.94345110	      0.96433141	      0.37881739	      4.19101756	    -19.47664401	    -11.61441752	     -0.20270983	      3.12625466	      4.93424010	     -8.33985556	    -26.14857551	      5.70282434	     13.20545622	    -13.69616502	     -0.23904317	     15.19887253	      3.19430664	     -6.18703691	    -24.87436358	      4.94098774	     -3.21927161	     -3.10450103	    -10.24986616	      0.86183401	     27.46844849	     89.95437384	      0.00000000	      0.00000000	     10.57721706	     10.91245212	      6.55921095	     27.95479651	     89.95437384	      0.00000000	      0.00000000
      1.09000000	     17.79674004	     -6.84150434	      1.37548925	     -0.50660945	      0.94245021	      0.96514847	      0.30659289	      4.46915025	    -19.83359063	    -11.48634716	     -0.20047458	      3.23762289	      5.00301773	     -8.58623089	    -26.52853145	      6.04279012	     12.95414688	    -13.83913382	     -0.24153845	     15.73597938	      3.45175331	     -6.25324398	    -24.92413043	      5.28297290	     -3.44189465	     -3.08307107	    -10.22177409	      0.78711481	     27.07455886	     89.95437384	      0.00000000	      0.00000000	     10.22138369	     10.97067935	      6.25227636	     29.12805311	     89.95437384	      0.00000000	      0.00000000
      1.10000000	     17.56043740	     -6.69396149	      1.40420741	     -0.50109756	      0.94106924	      0.96586999	      0.69310856	      4.31386033	    -19.73397052	    -11.75965030	     -0.20524462	      3.19440487	      4.83284505	     -8.46168118	    -26.47714378	      5.98026079	     12.86793555	    -14.19173467	     -0.24769250	     15.61628171	      3.39030549	     -6.16484647	    -24.67300187	      5.24243506	     -3.35506828	     -3.35108355	    -10.30537187	      0.78742154	     27.01156677	     89.95437384	      0.00000000	      0.00000000	     10.33206832	     10.75258529	      6.23093920	     29.68455214	     89.95437384	      0.00000000	      0.00000000
      1.11000000	     17.51838534	     -6.79345346	      1.37417959	     -0.49515933	      0.93990281	      0.96693712	      0.71486302	      4.47010318	    -19.98116586	    -11.84878153	     -0.20680025	      3.27882232	      4.74101260	     -8.47192290	    -26.90731610	      6.09820826	     13.02213624	    -14.10975805	     -0.24626173	     16.23537490	      3.44286934	     -6.17345870	    -24.59621913	      5.41623537	     -3.28133545	     -3.33699842	    -10.31885416	      0.70386074	     26.54961109	     89.95437384	      0.00000000	      0.00000000	     10.06458273	     10.65166865	      6.17963326	     30.82540547	     89.95437384	      0.00000000	      0.00000000
      1.12000000	     17.57134698	     -6.76633650	      1.68784098	     -0.48918879	      0.93873314	      0.96770318	      0.63045251	      4.48097781	    -20.11182121	    -12.12484461	     -0.21161846	      3.10696315	      4.71078321	     -8.57060728	    -27.27439612	      6.27093093	     12.72350437	    -14.23146386	     -0.24838590	     16.47953167	      3.46022345	     -6.21333948	    -24.61611962	      5.56917861	     -3.64438433	     -3.32410828	    -10.28857878	      0.65790666	     26.19051121	     89.95437384	      0.00000000	      0.00000000	      9.43877337	     10.84436822	      5.76508110	     32.80649394	     89.95437384	      0.00000000	      0.00000000
      1.13000000	     17.42871188	     -6.74738964	      1.72871422	     -0.48319034	      0.93728604	      0.96873861	      0.79563949	      4.47779578	    -20.07470255	    -12.58495787	     -0.21964895	      3.03690842	      4.55314902	     -8.54046285	    -27.49905660	      6.34158701	     12.70374030	    -14.31943341	     -0.24992126	     16.74836163	      3.44678922	     -6.20003137	    -24.41392901	      5.65208685	     -3.64852571	     -3.43430974	    -10.33969653	      0.59079872	     25.92812468	     89.95437384	      0.00000000	      0.00000000	      9.15425867	     10.78054382	      5.65769614	     34.17168900	     89.95437384	      0.00000000	      0.00000000
      1.14000000	     17.14059180	     -6.53350632	      1.89315015	     -0.47715587	      0.93578216	      0.96968422	      1.06211602	      4.28100115	    -19.75108641	    -13.08964795	     -0.22845745	      2.89077938	      4.38747044	     -8.38525313	    -27.36546640	      6.33942623	     12.55126897	    -14.75281113	     -0.25748513	     16.49299876	      3.36084428	     -6.09275312	    -24.02219252	      5.57558553	     -3.65158994	     -3.79276815	    -10.41606517	      0.58323806	     25.93244686	     89.95437384	      0.00000000	      0.00000000	      9.29340913	     10.59289109	      5.62228357	     34.89144035	     89.95437384	      0.00000000	      0.00000000
      1.15000000	     17.20282072	     -6.54401167	      2.15191606	     -0.47083538	      0.93461120	      0.97080632	      0.98080996	      4.31485665	    -20.05368715	    -13.84882763	     -0.24170764	      2.86436818	      3.91307843	     -8.39080155	    -27.86724153	      6.53568208	     12.27891325	    -14.71630473	     -0.25684797	     17.01396281	      3.31786247	     -6.15913751	    -24.05650279	      5.73280879	     -4.07514659	     -3.61310747	    -10.33012990	      0.36885708	     25.35862502	     89.95437384	      0.00000000	      0.00000000	      8.32141653	     10.94395181	      5.23285212	     37.60366717	     89.95437384	      0.00000000	      0.00000000
